# Blender 4.5.1 LTS
# www.blender.org
mtllib Haybale2.mtl
o Cube.051
v -1.404674 -1.738413 2.307485
v -1.404674 -1.404674 2.726717
v -1.738413 -1.404674 2.307485
v -1.404674 -1.640663 2.573396
v -1.597358 -1.597358 2.505472
v -1.640663 -1.404674 2.573396
v -1.640663 -1.640663 2.307485
v -1.404674 1.404674 2.726717
v -1.404674 1.738413 2.307485
v -1.738413 1.404674 2.307485
v -1.404674 1.640663 2.573396
v -1.597358 1.597358 2.505472
v -1.640663 1.640663 2.307485
v -1.640663 1.404674 2.573396
v -1.404674 -1.738413 -2.307485
v -1.738413 -1.404674 -2.307485
v -1.404674 -1.404674 -2.726717
v -1.640663 -1.640663 -2.307485
v -1.597358 -1.597358 -2.505472
v -1.640663 -1.404674 -2.573396
v -1.404674 -1.640663 -2.573396
v -1.404674 1.738413 -2.307485
v -1.404674 1.404674 -2.726717
v -1.738413 1.404674 -2.307485
v -1.404674 1.640663 -2.573396
v -1.597358 1.597358 -2.505472
v -1.640663 1.404674 -2.573396
v -1.640663 1.640663 -2.307485
v 1.404674 -1.738413 2.307485
v 1.738413 -1.404674 2.307485
v 1.404674 -1.404674 2.726717
v 1.640663 -1.640663 2.307485
v 1.597358 -1.597358 2.505472
v 1.640663 -1.404674 2.573396
v 1.404674 -1.640663 2.573396
v 1.404674 1.738413 2.307485
v 1.404674 1.404674 2.726717
v 1.738413 1.404674 2.307485
v 1.404674 1.640663 2.573396
v 1.597358 1.597358 2.505472
v 1.640663 1.404674 2.573396
v 1.640663 1.640663 2.307485
v 1.404674 -1.738413 -2.307485
v 1.404674 -1.404674 -2.726717
v 1.738413 -1.404674 -2.307485
v 1.404674 -1.640663 -2.573396
v 1.597358 -1.597358 -2.505472
v 1.640663 -1.404674 -2.573396
v 1.640663 -1.640663 -2.307485
v 1.404674 1.738413 -2.307485
v 1.738413 1.404674 -2.307485
v 1.404674 1.404674 -2.726717
v 1.640663 1.640663 -2.307485
v 1.597358 1.597358 -2.505472
v 1.640663 1.404674 -2.573396
v 1.404674 1.640663 -2.573396
v -1.316020 -1.628695 -1.594686
v -1.404674 -1.738413 0.000000
v -1.316020 -1.628695 1.594686
v -1.537115 -1.537115 1.594686
v -1.640663 -1.640663 0.000000
v -1.537115 -1.537115 -1.594686
v -1.628695 -1.316020 1.594686
v -1.738413 -1.404674 0.000000
v -1.628695 -1.316020 -1.594686
v -1.316020 1.628695 1.594686
v -1.404674 1.738413 0.000000
v -1.316020 1.628695 -1.594686
v -1.537115 1.537115 -1.594686
v -1.640663 1.640663 0.000000
v -1.537115 1.537115 1.594686
v -1.628695 1.316020 -1.594686
v -1.738413 1.404674 0.000000
v -1.628695 1.316020 1.594686
v 1.316020 -1.628695 1.594686
v 1.404674 -1.738413 0.000000
v 1.316020 -1.628695 -1.594686
v 1.537115 -1.537115 -1.594686
v 1.640663 -1.640663 0.000000
v 1.537115 -1.537115 1.594686
v 1.628695 -1.316020 -1.594686
v 1.738413 -1.404674 0.000000
v 1.628695 -1.316020 1.594686
v 1.316020 1.628695 -1.594686
v 1.404674 1.738413 0.000000
v 1.316020 1.628695 1.594686
v 1.537115 1.537115 1.594686
v 1.640663 1.640663 0.000000
v 1.537115 1.537115 -1.594686
v 1.628695 1.316020 1.594686
v 1.738413 1.404674 0.000000
v 1.628695 1.316020 -1.594686
v -1.968737 -1.387765 -1.543219
v -1.490115 -1.833512 -1.543219
v -1.828552 -1.702956 -1.543219
v -1.490115 1.833512 -1.543219
v -1.968737 1.387765 -1.543219
v -1.828552 1.702956 -1.543219
v -1.490115 -1.833512 -2.128775
v -1.968737 -1.387765 -2.128775
v -1.828552 -1.702956 -2.128775
v -1.968737 1.387765 -2.128775
v -1.490115 1.833512 -2.128775
v -1.828552 1.702956 -2.128775
v 1.490115 -1.833512 -1.543219
v 1.968737 -1.387765 -1.543219
v 1.828552 -1.702956 -1.543219
v 1.968737 1.387765 -1.543219
v 1.490115 1.833512 -1.543219
v 1.828552 1.702956 -1.543219
v 1.968737 -1.387765 -2.128775
v 1.490115 -1.833512 -2.128775
v 1.828552 -1.702956 -2.128775
v 1.490115 1.833512 -2.128775
v 1.968737 1.387765 -2.128775
v 1.828552 1.702956 -2.128775
v 1.900159 0.000000 -1.543219
v 1.900159 0.000000 -2.128775
v -1.900159 0.000000 -1.543219
v -1.900159 0.000000 -2.128775
v -1.968737 -1.387765 1.543219
v -1.490115 -1.833512 1.543219
v -1.828552 -1.702956 1.543219
v -1.490115 1.833512 1.543219
v -1.968737 1.387765 1.543219
v -1.828552 1.702956 1.543219
v -1.490115 -1.833512 2.128775
v -1.968737 -1.387765 2.128775
v -1.828552 -1.702956 2.128775
v -1.968737 1.387765 2.128775
v -1.490115 1.833512 2.128775
v -1.828552 1.702956 2.128775
v 1.490115 -1.833512 1.543219
v 1.968737 -1.387765 1.543219
v 1.828552 -1.702956 1.543219
v 1.968737 1.387765 1.543219
v 1.490115 1.833512 1.543219
v 1.828552 1.702956 1.543219
v 1.968737 -1.387765 2.128775
v 1.490115 -1.833512 2.128775
v 1.828552 -1.702956 2.128775
v 1.490115 1.833512 2.128775
v 1.968737 1.387765 2.128775
v 1.828552 1.702956 2.128775
v 1.900159 0.000000 1.543219
v 1.900159 0.000000 2.128775
v -1.900159 0.000000 1.543219
v -1.900159 0.000000 2.128775
vn -0.1632 -0.9298 0.3299
vn -0.1701 -0.9288 0.3291
vn -0.3408 -0.8901 0.3025
vn -0.2690 -0.2690 0.9248
vn -0.5099 -0.2245 0.8304
vn -0.4457 -0.4457 0.7763
vn -0.2245 -0.5099 0.8304
vn -0.9298 -0.1632 0.3299
vn -0.8901 -0.3408 0.3025
vn -0.9288 -0.1701 0.3291
vn -0.2690 0.2690 0.9248
vn -0.2245 0.5099 0.8304
vn -0.4457 0.4457 0.7763
vn -0.5099 0.2245 0.8304
vn -0.1632 0.9298 0.3299
vn -0.3408 0.8901 0.3025
vn -0.1701 0.9288 0.3291
vn -0.9298 0.1632 0.3299
vn -0.9288 0.1701 0.3291
vn -0.8901 0.3408 0.3025
vn -0.1632 -0.9298 -0.3299
vn -0.3408 -0.8901 -0.3025
vn -0.1701 -0.9288 -0.3291
vn -0.9298 -0.1632 -0.3299
vn -0.9288 -0.1701 -0.3291
vn -0.8901 -0.3408 -0.3025
vn -0.2690 -0.2690 -0.9248
vn -0.2245 -0.5099 -0.8304
vn -0.4457 -0.4457 -0.7763
vn -0.5099 -0.2245 -0.8304
vn -0.1632 0.9298 -0.3299
vn -0.1701 0.9288 -0.3291
vn -0.3408 0.8901 -0.3025
vn -0.2690 0.2690 -0.9248
vn -0.5099 0.2245 -0.8304
vn -0.4457 0.4457 -0.7763
vn -0.2245 0.5099 -0.8304
vn -0.9298 0.1632 -0.3299
vn -0.8901 0.3408 -0.3025
vn -0.9288 0.1701 -0.3291
vn 0.1632 -0.9298 0.3299
vn 0.3408 -0.8901 0.3025
vn 0.1701 -0.9288 0.3291
vn 0.9298 -0.1632 0.3299
vn 0.9288 -0.1701 0.3291
vn 0.8901 -0.3408 0.3025
vn 0.2690 -0.2690 0.9248
vn 0.2245 -0.5099 0.8304
vn 0.4457 -0.4457 0.7763
vn 0.5099 -0.2245 0.8304
vn 0.1632 0.9298 0.3299
vn 0.1701 0.9288 0.3291
vn 0.3408 0.8901 0.3025
vn 0.2690 0.2690 0.9248
vn 0.5099 0.2245 0.8304
vn 0.4457 0.4457 0.7763
vn 0.2245 0.5099 0.8304
vn 0.9298 0.1632 0.3299
vn 0.8901 0.3408 0.3025
vn 0.9288 0.1701 0.3291
vn 0.1632 -0.9298 -0.3299
vn 0.1701 -0.9288 -0.3291
vn 0.3408 -0.8901 -0.3025
vn 0.2690 -0.2690 -0.9248
vn 0.5099 -0.2245 -0.8304
vn 0.4457 -0.4457 -0.7763
vn 0.2245 -0.5099 -0.8304
vn 0.9298 -0.1632 -0.3299
vn 0.8901 -0.3408 -0.3025
vn 0.9288 -0.1701 -0.3291
vn 0.1632 0.9298 -0.3299
vn 0.3408 0.8901 -0.3025
vn 0.1701 0.9288 -0.3291
vn 0.9298 0.1632 -0.3299
vn 0.9288 0.1701 -0.3291
vn 0.8901 0.3408 -0.3025
vn 0.2690 0.2690 -0.9248
vn 0.2245 0.5099 -0.8304
vn 0.4457 0.4457 -0.7763
vn 0.5099 0.2245 -0.8304
vn -0.1821 -0.9822 -0.0471
vn -0.2079 -0.9625 -0.1740
vn -0.3760 -0.9077 -0.1865
vn -0.3822 -0.9226 -0.0527
vn -0.9226 -0.3822 -0.0527
vn -0.9077 -0.3760 -0.1865
vn -0.9625 -0.2079 -0.1740
vn -0.9822 -0.1821 -0.0471
vn -0.1821 0.9822 0.0471
vn -0.2079 0.9625 0.1740
vn -0.3760 0.9077 0.1865
vn -0.3822 0.9226 0.0527
vn -0.9226 0.3822 0.0527
vn -0.9077 0.3760 0.1865
vn -0.9625 0.2079 0.1740
vn -0.9822 0.1821 0.0471
vn 0.1821 -0.9822 0.0471
vn 0.2079 -0.9625 0.1740
vn 0.3760 -0.9077 0.1865
vn 0.3822 -0.9226 0.0527
vn 0.9226 -0.3822 0.0527
vn 0.9077 -0.3760 0.1865
vn 0.9625 -0.2079 0.1740
vn 0.9822 -0.1821 0.0471
vn 0.1821 0.9822 -0.0471
vn 0.2079 0.9625 -0.1740
vn 0.3760 0.9077 -0.1865
vn 0.3822 0.9226 -0.0527
vn 0.9226 0.3822 -0.0527
vn 0.9077 0.3760 -0.1865
vn 0.9625 0.2079 -0.1740
vn 0.9822 0.1821 -0.0471
vn 0.1821 -0.9822 -0.0471
vn 0.2079 -0.9625 -0.1740
vn -0.9822 -0.1821 0.0471
vn -0.9625 -0.2079 0.1740
vn -0.1821 0.9822 -0.0471
vn -0.2079 0.9625 -0.1740
vn 0.9822 -0.1821 -0.0471
vn 0.9625 -0.2079 -0.1740
vn 0.9625 0.2079 0.1740
vn 0.9822 0.1821 0.0471
vn 0.9792 0.2027 -0.0000
vn 0.9792 -0.2027 -0.0000
vn 0.2079 0.9625 0.1740
vn 0.1821 0.9822 0.0471
vn -0.2027 0.9792 -0.0000
vn 0.2027 0.9792 -0.0000
vn -0.9625 0.2079 -0.1740
vn -0.9822 0.1821 -0.0471
vn -0.9792 0.2027 -0.0000
vn -0.9792 -0.2027 -0.0000
vn -0.2079 -0.9625 0.1740
vn -0.1821 -0.9822 0.0471
vn 0.2027 -0.9792 -0.0000
vn -0.2027 -0.9792 -0.0000
vn 0.9077 0.3760 0.1865
vn 0.9226 0.3822 0.0527
vn 0.9239 0.3827 -0.0000
vn 0.3822 0.9226 0.0527
vn 0.3760 0.9077 0.1865
vn 0.3827 0.9239 -0.0000
vn 0.9077 -0.3760 -0.1865
vn 0.9226 -0.3822 -0.0527
vn 0.9239 -0.3827 -0.0000
vn 0.3822 -0.9226 -0.0527
vn 0.3760 -0.9077 -0.1865
vn 0.3827 -0.9239 -0.0000
vn -0.9077 0.3760 -0.1865
vn -0.9226 0.3822 -0.0527
vn -0.9239 0.3827 -0.0000
vn -0.3822 0.9226 -0.0527
vn -0.3760 0.9077 -0.1865
vn -0.3827 0.9239 -0.0000
vn -0.9077 -0.3760 0.1865
vn -0.9226 -0.3822 0.0527
vn -0.9239 -0.3827 -0.0000
vn -0.3822 -0.9226 0.0527
vn -0.3760 -0.9077 0.1865
vn -0.3827 -0.9239 -0.0000
vn -0.3599 -0.9330 -0.0000
vn -0.9137 -0.4064 -0.0000
vn -0.3599 0.9330 -0.0000
vn -0.9137 0.4064 -0.0000
vn 0.3599 -0.9330 -0.0000
vn 0.9137 -0.4064 -0.0000
vn 0.3599 0.9330 -0.0000
vn 0.9137 0.4064 -0.0000
vn -0.0000 -1.0000 -0.0000
vn -0.9988 -0.0494 -0.0000
vn -0.0000 -0.0000 1.0000
vn -0.0000 1.0000 -0.0000
vn -0.0000 -0.0000 -1.0000
vn 0.9988 -0.0494 -0.0000
vn 0.9988 0.0494 -0.0000
vn -0.9988 0.0494 -0.0000
vt 0.422014 0.723528
vt 0.422014 0.741669
vt 0.411540 0.741669
vt 0.403873 0.723528
vt 0.611007 0.912520
vt 0.611007 0.930662
vt 0.600533 0.930662
vt 0.592866 0.912520
vt 0.611007 0.192832
vt 0.592866 0.192832
vt 0.592866 0.182358
vt 0.611007 0.174691
vt 0.763717 0.912520
vt 0.781858 0.912520
vt 0.781858 0.922994
vt 0.763717 0.930662
vt 0.952710 0.723528
vt 0.970851 0.723528
vt 0.970851 0.734002
vt 0.952710 0.741669
vt 0.763717 0.192832
vt 0.763717 0.174691
vt 0.774191 0.174691
vt 0.781858 0.192832
vt 0.422014 0.570818
vt 0.403873 0.570818
vt 0.403873 0.560344
vt 0.422014 0.552676
vt 0.611007 0.345542
vt 0.611007 0.363684
vt 0.596699 0.367517
vt 0.592866 0.345542
vt 0.611007 0.381825
vt 0.592866 0.381825
vt 0.952710 0.570818
vt 0.952710 0.552676
vt 0.963184 0.552676
vt 0.970851 0.570818
vt 0.763717 0.381825
vt 0.763717 0.363684
vt 0.778025 0.359850
vt 0.781858 0.381825
vt 0.763717 0.345542
vt 0.781858 0.345542
vt 0.574724 0.723528
vt 0.592866 0.723528
vt 0.595421 0.741669
vt 0.583795 0.750740
vt 0.611007 0.723528
vt 0.611007 0.741669
vt 0.611007 0.759810
vt 0.800000 0.723528
vt 0.790929 0.750740
vt 0.781858 0.739113
vt 0.781858 0.723528
vt 0.763717 0.759810
vt 0.763717 0.741669
vt 0.763717 0.723528
vt 0.574724 0.570818
vt 0.583795 0.543606
vt 0.592866 0.555232
vt 0.592866 0.570818
vt 0.611007 0.534535
vt 0.611007 0.552676
vt 0.611007 0.570818
vt 0.800000 0.570818
vt 0.781858 0.570818
vt 0.779303 0.552676
vt 0.790929 0.543606
vt 0.763717 0.570818
vt 0.763717 0.552676
vt 0.763717 0.534535
vt 0.422014 0.685350
vt 0.403873 0.685350
vt 0.592866 0.231010
vt 0.611007 0.231010
vt 0.952710 0.608995
vt 0.970851 0.608995
vt 0.781858 0.307365
vt 0.763717 0.307365
vt 0.574724 0.608995
vt 0.592866 0.608995
vt 0.611007 0.608995
vt 0.800000 0.685350
vt 0.781858 0.685350
vt 0.763717 0.685350
vt 0.574724 0.685350
vt 0.611007 0.307365
vt 0.952710 0.685350
vt 0.611007 0.685350
vt 0.763717 0.608995
vt 0.763717 0.647173
vt 0.611007 0.647173
vt 0.800000 0.608995
vt 0.952710 0.647173
vt 0.800000 0.647173
vt 0.763717 0.231010
vt 0.763717 0.269187
vt 0.611007 0.269187
vt 0.422014 0.608995
vt 0.574724 0.647173
vt 0.422014 0.647173
vt 0.781858 0.608995
vt 0.781858 0.647173
vt 0.592866 0.685350
vt 0.592866 0.647173
vt 0.781858 0.231010
vt 0.781858 0.269187
vt 0.970851 0.685350
vt 0.970851 0.647173
vt 0.592866 0.307365
vt 0.592866 0.269187
vt 0.403873 0.608995
vt 0.403873 0.647173
vt 0.163202 0.289373
vt 0.163202 0.413726
vt 0.148086 0.413726
vt 0.148086 0.289373
vt 0.276484 0.169063
vt 0.272440 0.040665
vt 0.287555 0.040665
vt 0.287555 0.165019
vt 0.506031 0.413726
vt 0.506031 0.289373
vt 0.521147 0.289373
vt 0.521147 0.413726
vt 0.396793 0.040665
vt 0.392749 0.169063
vt 0.381678 0.165019
vt 0.381678 0.040665
vt 0.265429 0.421832
vt 0.265429 0.281267
vt 0.276162 0.285650
vt 0.276162 0.417449
vt 0.287555 0.289373
vt 0.287555 0.413726
vt 0.403804 0.281267
vt 0.403804 0.421832
vt 0.393071 0.417449
vt 0.393071 0.285650
vt 0.381678 0.413726
vt 0.381678 0.289373
vt 0.334616 0.040665
vt 0.334616 0.165019
vt 0.334616 0.413726
vt 0.396793 0.522964
vt 0.392366 0.533653
vt 0.381678 0.538080
vt 0.334616 0.538080
vt 0.287555 0.538080
vt 0.276867 0.533653
vt 0.272440 0.522964
vt 0.272440 0.180135
vt 0.396793 0.180135
vt 0.334616 0.289373
vt 0.016408 0.750000
vt 0.001292 0.750000
vt 0.001292 0.874354
vt 0.016408 0.874354
vt 0.129691 0.629691
vt 0.140762 0.625646
vt 0.140762 0.501292
vt 0.125646 0.501292
vt 0.359238 0.874354
vt 0.374354 0.874354
vt 0.374354 0.750000
vt 0.359238 0.750000
vt 0.250000 0.501292
vt 0.234884 0.501292
vt 0.234884 0.625646
vt 0.245956 0.629691
vt 0.118636 0.882459
vt 0.129369 0.878076
vt 0.129369 0.746278
vt 0.118636 0.741895
vt 0.140762 0.874354
vt 0.140762 0.750000
vt 0.257010 0.741895
vt 0.246277 0.746278
vt 0.246278 0.878076
vt 0.257010 0.882459
vt 0.234884 0.750000
vt 0.234884 0.874354
vt 0.187823 0.501292
vt 0.187823 0.625646
vt 0.125646 0.983592
vt 0.130073 0.994280
vt 0.140762 0.998708
vt 0.187823 0.998708
vt 0.234884 0.998708
vt 0.245573 0.994280
vt 0.250000 0.983592
vt 0.187823 0.874354
vt 0.125646 0.640762
vt 0.187823 0.750000
vt 0.250000 0.640762
s 1
usemtl Cube.051
f 1/1/1 4/2/2 5/3/3 7/4/3
f 2/5/4 6/6/5 5/7/6 4/8/7
f 3/9/8 7/10/9 5/11/9 6/12/10
f 8/13/11 11/14/12 12/15/13 14/16/14
f 9/17/15 13/18/16 12/19/16 11/20/17
f 10/21/18 14/22/19 12/23/20 13/24/20
f 15/25/21 18/26/22 19/27/22 21/28/23
f 16/29/24 20/30/25 19/31/26 18/32/26
f 17/33/27 21/34/28 19/31/29 20/30/30
f 22/35/31 25/36/32 26/37/33 28/38/33
f 23/39/34 27/40/35 26/41/36 25/42/37
f 24/43/38 28/44/39 26/41/39 27/40/40
f 29/45/41 32/46/42 33/47/42 35/48/43
f 30/49/44 34/50/45 33/47/46 32/46/46
f 31/51/47 35/48/48 33/47/49 34/50/50
f 36/52/51 39/53/52 40/54/53 42/55/53
f 37/56/54 41/57/55 40/54/56 39/53/57
f 38/58/58 42/55/59 40/54/59 41/57/60
f 43/59/61 46/60/62 47/61/63 49/62/63
f 44/63/64 48/64/65 47/61/66 46/60/67
f 45/65/68 49/62/69 47/61/69 48/64/70
f 50/66/71 53/67/72 54/68/72 56/69/73
f 51/70/74 55/71/75 54/68/76 53/67/76
f 52/72/77 56/69/78 54/68/79 55/71/80
f 59/73/81 1/1/82 7/4/83 60/74/84
f 60/75/85 7/10/86 3/9/87 63/76/88
f 2/5/4 8/13/11 14/16/14 6/6/5
f 6/12/10 14/22/19 10/21/18 3/9/8
f 68/77/89 22/35/90 28/38/91 69/78/92
f 69/79/93 28/44/94 24/43/95 72/80/96
f 23/39/34 17/33/27 20/30/30 27/40/35
f 27/40/40 20/30/25 16/29/24 24/43/38
f 43/59/61 15/25/21 21/28/23 46/60/62
f 46/60/67 21/34/28 17/33/27 44/63/64
f 22/35/31 50/66/71 56/69/73 25/36/32
f 25/42/37 56/69/78 52/72/77 23/39/34
f 51/70/74 45/65/68 48/64/70 55/71/75
f 55/71/80 48/64/65 44/63/64 52/72/77
f 77/81/97 43/59/98 49/62/99 78/82/100
f 78/82/101 49/62/102 45/65/103 81/83/104
f 86/84/105 36/52/106 42/55/107 87/85/108
f 87/85/109 42/55/110 38/58/111 90/86/112
f 37/56/54 31/51/47 34/50/50 41/57/55
f 41/57/60 34/50/45 30/49/44 38/58/58
f 1/1/1 29/45/41 35/48/43 4/2/2
f 4/8/7 35/48/48 31/51/47 2/5/4
f 36/52/51 9/17/15 11/20/17 39/53/52
f 39/53/57 11/14/12 8/13/11 37/56/54
f 59/73/81 75/87/113 29/45/114 1/1/82
f 65/88/115 72/80/96 24/43/95 16/29/116
f 31/51/47 37/56/54 8/13/11 2/5/4
f 86/84/105 66/89/117 9/17/118 36/52/106
f 17/33/27 23/39/34 52/72/77 44/63/64
f 83/90/119 90/86/112 38/58/111 30/49/120
f 45/65/103 51/70/121 92/91/122 81/83/104
f 81/83/104 92/91/122 91/92/123 82/93/124
f 82/93/124 91/92/123 90/86/112 83/90/119
f 50/66/125 22/35/90 68/77/89 84/94/126
f 84/94/126 68/77/89 67/95/127 85/96/128
f 85/96/128 67/95/127 66/89/117 86/84/105
f 3/9/87 10/21/129 74/97/130 63/76/88
f 63/76/88 74/97/130 73/98/131 64/99/132
f 64/99/132 73/98/131 72/80/96 65/88/115
f 15/25/133 43/59/98 77/81/97 57/100/134
f 57/100/134 77/81/97 76/101/135 58/102/136
f 58/102/136 76/101/135 75/87/113 59/73/81
f 53/67/137 89/103/138 92/91/122 51/70/121
f 89/103/138 88/104/139 91/92/123 92/91/122
f 88/104/139 87/85/109 90/86/112 91/92/123
f 50/66/125 84/94/126 89/103/140 53/67/141
f 84/94/126 85/96/128 88/104/142 89/103/140
f 85/96/128 86/84/105 87/85/108 88/104/142
f 32/46/143 80/105/144 83/90/119 30/49/120
f 80/105/144 79/106/145 82/93/124 83/90/119
f 79/106/145 78/82/101 81/83/104 82/93/124
f 29/45/114 75/87/113 80/105/146 32/46/147
f 75/87/113 76/101/135 79/106/148 80/105/146
f 76/101/135 77/81/97 78/82/100 79/106/148
f 13/24/149 71/107/150 74/97/130 10/21/129
f 71/107/150 70/108/151 73/98/131 74/97/130
f 70/108/151 69/79/93 72/80/96 73/98/131
f 9/17/118 66/89/117 71/109/152 13/18/153
f 66/89/117 67/95/127 70/110/154 71/109/152
f 67/95/127 68/77/89 69/78/92 70/110/154
f 18/32/155 62/111/156 65/88/115 16/29/116
f 62/111/156 61/112/157 64/99/132 65/88/115
f 61/112/157 60/75/85 63/76/88 64/99/132
f 15/25/133 57/100/134 62/113/158 18/26/159
f 57/100/134 58/102/136 61/114/160 62/113/158
f 58/102/136 59/73/81 60/74/84 61/114/160
f 99/115/161 94/116/161 95/117/161 101/118/161
f 101/119/162 95/120/162 93/121/162 100/122/162
f 96/123/163 103/124/163 104/125/163 98/126/163
f 98/127/164 104/128/164 102/129/164 97/130/164
f 105/131/165 112/132/165 113/133/165 107/134/165
f 107/134/166 113/133/166 111/135/166 106/136/166
f 114/137/167 109/138/167 110/139/167 116/140/167
f 116/140/168 110/139/168 108/141/168 115/142/168
f 99/115/169 112/132/169 105/131/169 94/116/169
f 119/143/170 97/130/170 102/129/170 120/144/170
f 105/131/171 107/134/171 106/136/171 117/145/171 108/141/171 110/139/171 109/138/171 96/146/171 98/147/171 97/148/171 119/149/171 93/150/171 95/151/171 94/152/171
f 114/137/172 103/124/172 96/123/172 109/138/172
f 99/153/173 101/119/173 100/122/173 120/144/173 102/129/173 104/128/173 103/154/173 114/137/173 116/140/173 115/142/173 118/155/173 111/135/173 113/133/173 112/132/173
f 118/155/174 115/142/174 108/141/174 117/145/174
f 111/135/175 118/155/175 117/145/175 106/136/175
f 93/121/176 119/143/176 120/144/176 100/122/176
f 127/156/161 129/157/161 123/158/161 122/159/161
f 129/160/162 128/161/162 121/162/162 123/163/162
f 124/164/163 126/165/163 132/166/163 131/167/163
f 126/168/164 125/169/164 130/170/164 132/171/164
f 133/172/165 135/173/165 141/174/165 140/175/165
f 135/173/166 134/176/166 139/177/166 141/174/166
f 142/178/167 144/179/167 138/180/167 137/181/167
f 144/179/168 143/182/168 136/183/168 138/180/168
f 127/156/169 122/159/169 133/172/169 140/175/169
f 147/184/170 148/185/170 130/170/170 125/169/170
f 133/172/173 122/186/173 123/187/173 121/188/173 147/189/173 125/190/173 126/191/173 124/192/173 137/181/173 138/180/173 136/183/173 145/193/173 134/176/173 135/173/173
f 142/178/172 137/181/172 124/164/172 131/167/172
f 127/194/171 140/175/171 141/174/171 139/177/171 146/195/171 143/182/171 144/179/171 142/178/171 131/196/171 132/171/171 130/170/171 148/185/171 128/161/171 129/160/171
f 146/195/174 145/193/174 136/183/174 143/182/174
f 139/177/175 134/176/175 145/193/175 146/195/175
f 121/162/176 128/161/176 148/185/176 147/184/176
