# Blender 4.5.1 LTS
# www.blender.org
mtllib Haybale1.mtl
o Cube.047
v -1.404674 0.115763 3.345191
v -1.404674 0.449502 3.764424
v -1.738413 0.449502 3.345191
v -1.404674 0.213513 3.611102
v -1.597358 0.256818 3.543179
v -1.640663 0.449502 3.611102
v -1.640663 0.213513 3.345191
v -1.404674 3.258850 3.764424
v -1.404674 3.592589 3.345191
v -1.738413 3.258850 3.345191
v -1.404674 3.494839 3.611102
v -1.597358 3.451534 3.543179
v -1.640663 3.494839 3.345191
v -1.640663 3.258850 3.611102
v -1.404674 0.115763 -1.269778
v -1.738413 0.449502 -1.269778
v -1.404674 0.449502 -1.689011
v -1.640663 0.213513 -1.269778
v -1.597358 0.256818 -1.467766
v -1.640663 0.449502 -1.535689
v -1.404674 0.213513 -1.535689
v -1.404674 3.592589 -1.269778
v -1.404674 3.258850 -1.689011
v -1.738413 3.258850 -1.269778
v -1.404674 3.494839 -1.535689
v -1.597358 3.451534 -1.467766
v -1.640663 3.258850 -1.535689
v -1.640663 3.494839 -1.269778
v 1.404674 0.115763 3.345191
v 1.738413 0.449502 3.345191
v 1.404674 0.449502 3.764424
v 1.640663 0.213513 3.345191
v 1.597358 0.256818 3.543179
v 1.640663 0.449502 3.611102
v 1.404674 0.213513 3.611102
v 1.404674 3.592589 3.345191
v 1.404674 3.258850 3.764424
v 1.738413 3.258850 3.345191
v 1.404674 3.494839 3.611102
v 1.597358 3.451534 3.543179
v 1.640663 3.258850 3.611102
v 1.640663 3.494839 3.345191
v 1.404674 0.115763 -1.269778
v 1.404674 0.449502 -1.689011
v 1.738413 0.449502 -1.269778
v 1.404674 0.213513 -1.535689
v 1.597358 0.256818 -1.467766
v 1.640663 0.449502 -1.535689
v 1.640663 0.213513 -1.269778
v 1.404674 3.592589 -1.269778
v 1.738413 3.258850 -1.269778
v 1.404674 3.258850 -1.689011
v 1.640663 3.494839 -1.269778
v 1.597358 3.451534 -1.467766
v 1.640663 3.258850 -1.535689
v 1.404674 3.494839 -1.535689
v -1.280250 0.269750 1.037706
v -1.495335 0.358841 1.037706
v -1.584426 0.573926 1.037706
v -1.280250 3.438602 1.037706
v -1.495335 3.349511 1.037706
v -1.584426 3.134426 1.037706
v 1.280249 0.269750 1.037706
v 1.495335 0.358841 1.037706
v 1.584426 0.573926 1.037706
v 1.280249 3.438602 1.037706
v 1.495335 3.349511 1.037706
v 1.584426 3.134426 1.037706
v -1.383310 1.854176 3.722953
v -1.615710 1.854176 3.571963
v -1.711973 1.854176 3.310096
v -1.383310 1.854176 -1.647540
v -1.615710 1.854176 -1.496550
v -1.711973 1.854176 -1.234684
v 1.711973 1.854176 -1.234684
v 1.615710 1.854176 -1.496550
v 1.383310 1.854176 -1.647540
v 1.383310 1.854176 3.722953
v 1.615710 1.854176 3.571963
v 1.711973 1.854176 3.310096
v 1.560328 1.854176 1.037706
v -1.560329 1.854176 1.037706
v -1.855773 0.546040 1.399531
v -1.404614 0.125869 1.399531
v -1.723632 0.248934 1.399531
v -1.404614 3.582483 1.399531
v -1.855773 3.162312 1.399531
v -1.723632 3.459417 1.399531
v -1.404614 0.125869 0.675883
v -1.855773 0.546040 0.675883
v -1.723632 0.248934 0.675883
v -1.855773 3.162312 0.675883
v -1.404614 3.582483 0.675883
v -1.723632 3.459417 0.675883
v 1.404614 0.125869 1.399531
v 1.855773 0.546040 1.399531
v 1.723632 0.248934 1.399531
v 1.855773 3.162312 1.399531
v 1.404614 3.582483 1.399531
v 1.723632 3.459417 1.399531
v 1.855773 0.546040 0.675883
v 1.404614 0.125869 0.675883
v 1.723632 0.248934 0.675883
v 1.404614 3.582483 0.675883
v 1.855773 3.162312 0.675883
v 1.723632 3.459417 0.675883
v 1.759785 1.854176 1.399531
v 1.759785 1.854176 0.675883
v -1.759785 1.854176 1.399531
v -1.759785 1.854176 0.675883
v -1.998042 1.515864 -1.298728
v -1.512295 1.515864 -1.800443
v -1.889725 1.515864 -1.598351
v -1.512295 1.515864 3.875857
v -1.998042 1.515864 3.374142
v -1.889725 1.515864 3.673765
v -1.512295 2.192488 -1.800443
v -1.998042 2.192488 -1.298728
v -1.889725 2.192488 -1.598351
v -1.998042 2.192488 3.374142
v -1.512295 2.192488 3.875857
v -1.889725 2.192488 3.673765
v 1.512295 1.515864 -1.800443
v 1.998042 1.515864 -1.298728
v 1.889725 1.515864 -1.598351
v 1.998042 1.515864 3.374142
v 1.512295 1.515864 3.875857
v 1.889725 1.515864 3.673765
v 1.998042 2.192488 -1.298728
v 1.512295 2.192488 -1.800443
v 1.889725 2.192488 -1.598351
v 1.512295 2.192488 3.875857
v 1.998042 2.192488 3.374142
v 1.889725 2.192488 3.673765
v 1.645584 1.515864 1.037707
v 1.645584 2.192488 1.037707
v -1.645584 1.515864 1.037707
v -1.645584 2.192488 1.037707
vn -0.1632 -0.9298 0.3299
vn -0.1701 -0.9288 0.3291
vn -0.3408 -0.8901 0.3025
vn -0.2711 -0.2538 0.9285
vn -0.5117 -0.2088 0.8334
vn -0.4457 -0.4457 0.7763
vn -0.2245 -0.5099 0.8304
vn -0.9319 -0.1492 0.3307
vn -0.8901 -0.3408 0.3025
vn -0.9309 -0.1573 0.3298
vn -0.2711 0.2538 0.9285
vn -0.2245 0.5099 0.8304
vn -0.4457 0.4457 0.7763
vn -0.5117 0.2088 0.8334
vn -0.1632 0.9298 0.3299
vn -0.3408 0.8901 0.3025
vn -0.1701 0.9288 0.3291
vn -0.9319 0.1492 0.3307
vn -0.9309 0.1573 0.3298
vn -0.8901 0.3408 0.3025
vn -0.1632 -0.9298 -0.3299
vn -0.3408 -0.8901 -0.3025
vn -0.1701 -0.9288 -0.3291
vn -0.9319 -0.1492 -0.3307
vn -0.9309 -0.1573 -0.3298
vn -0.8901 -0.3408 -0.3025
vn -0.2711 -0.2538 -0.9285
vn -0.2245 -0.5099 -0.8304
vn -0.4457 -0.4457 -0.7763
vn -0.5117 -0.2088 -0.8334
vn -0.1632 0.9298 -0.3299
vn -0.1701 0.9288 -0.3291
vn -0.3408 0.8901 -0.3025
vn -0.2711 0.2538 -0.9285
vn -0.5117 0.2088 -0.8334
vn -0.4457 0.4457 -0.7763
vn -0.2245 0.5099 -0.8304
vn -0.9319 0.1492 -0.3307
vn -0.8901 0.3408 -0.3025
vn -0.9309 0.1573 -0.3298
vn 0.1632 -0.9298 0.3299
vn 0.3408 -0.8901 0.3025
vn 0.1701 -0.9288 0.3291
vn 0.9319 -0.1492 0.3307
vn 0.9309 -0.1573 0.3298
vn 0.8901 -0.3408 0.3025
vn 0.2711 -0.2538 0.9285
vn 0.2245 -0.5099 0.8304
vn 0.4457 -0.4457 0.7763
vn 0.5117 -0.2088 0.8334
vn 0.1632 0.9298 0.3299
vn 0.1701 0.9288 0.3291
vn 0.3408 0.8901 0.3025
vn 0.2711 0.2538 0.9285
vn 0.5117 0.2088 0.8334
vn 0.4457 0.4457 0.7763
vn 0.2245 0.5099 0.8304
vn 0.9319 0.1492 0.3307
vn 0.8901 0.3408 0.3025
vn 0.9309 0.1573 0.3298
vn 0.1632 -0.9298 -0.3299
vn 0.1701 -0.9288 -0.3291
vn 0.3408 -0.8901 -0.3025
vn 0.2711 -0.2538 -0.9285
vn 0.5117 -0.2088 -0.8334
vn 0.4457 -0.4457 -0.7763
vn 0.2245 -0.5099 -0.8304
vn 0.9319 -0.1492 -0.3307
vn 0.8901 -0.3408 -0.3025
vn 0.9309 -0.1573 -0.3298
vn 0.1632 0.9298 -0.3299
vn 0.3408 0.8901 -0.3025
vn 0.1701 0.9288 -0.3291
vn 0.9319 0.1492 -0.3307
vn 0.9309 0.1573 -0.3298
vn 0.8901 0.3408 -0.3025
vn 0.2711 0.2538 -0.9285
vn 0.2245 0.5099 -0.8304
vn 0.4457 0.4457 -0.7763
vn 0.5117 0.2088 -0.8334
vn -0.1874 -0.9823 -0.0000
vn -0.2019 -0.9765 -0.0760
vn -0.3814 -0.9208 -0.0820
vn -0.3827 -0.9239 -0.0000
vn -0.9239 -0.3827 -0.0000
vn -0.9208 -0.3814 -0.0820
vn -0.9779 -0.1947 -0.0760
vn -0.9840 -0.1781 -0.0000
vn -0.2958 -0.0000 0.9552
vn -0.5448 -0.0000 0.8386
vn -0.9386 -0.0000 0.3450
vn -0.1874 0.9823 -0.0000
vn -0.2019 0.9765 0.0760
vn -0.3814 0.9208 0.0820
vn -0.3827 0.9239 -0.0000
vn -0.9239 0.3827 -0.0000
vn -0.9208 0.3814 0.0820
vn -0.9779 0.1947 0.0760
vn -0.9840 0.1781 -0.0000
vn -0.2958 -0.0000 -0.9552
vn -0.5448 -0.0000 -0.8386
vn -0.9386 -0.0000 -0.3450
vn 0.9386 -0.0000 -0.3450
vn 0.5448 -0.0000 -0.8386
vn 0.2958 -0.0000 -0.9552
vn 0.1874 -0.9823 -0.0000
vn 0.2019 -0.9765 0.0760
vn 0.3814 -0.9208 0.0820
vn 0.3827 -0.9239 -0.0000
vn 0.9239 -0.3827 -0.0000
vn 0.9208 -0.3814 0.0820
vn 0.9779 -0.1947 0.0760
vn 0.9840 -0.1781 -0.0000
vn 0.1874 0.9823 -0.0000
vn 0.2019 0.9765 -0.0760
vn 0.3814 0.9208 -0.0820
vn 0.3827 0.9239 -0.0000
vn 0.9239 0.3827 -0.0000
vn 0.9208 0.3814 -0.0820
vn 0.9779 0.1947 -0.0760
vn 0.9840 0.1781 -0.0000
vn 0.2958 -0.0000 0.9552
vn 0.5448 -0.0000 0.8386
vn 0.9386 -0.0000 0.3450
vn 0.2019 -0.9765 -0.0760
vn -1.0000 -0.0000 -0.0000
vn -0.9978 -0.0000 0.0661
vn -0.2019 0.9765 -0.0760
vn 1.0000 -0.0000 -0.0000
vn 0.9978 -0.0000 -0.0661
vn 0.9978 -0.0000 0.0661
vn 0.9779 0.1947 0.0760
vn 0.2019 0.9765 0.0760
vn -0.9978 -0.0000 -0.0661
vn -0.9779 0.1947 -0.0760
vn -0.2019 -0.9765 0.0760
vn 0.9208 0.3814 0.0820
vn 0.3814 0.9208 0.0820
vn 0.9208 -0.3814 -0.0820
vn 0.9779 -0.1947 -0.0760
vn 0.3814 -0.9208 -0.0820
vn -0.9208 0.3814 -0.0820
vn -0.3814 0.9208 -0.0820
vn -0.9208 -0.3814 0.0820
vn -0.9779 -0.1947 0.0760
vn -0.3814 -0.9208 0.0820
vn -0.3599 -0.9330 -0.0000
vn -0.9137 -0.4064 -0.0000
vn -0.3599 0.9330 -0.0000
vn -0.9137 0.4064 -0.0000
vn 0.3599 -0.9330 -0.0000
vn 0.9137 -0.4064 -0.0000
vn 0.3599 0.9330 -0.0000
vn 0.9137 0.4064 -0.0000
vn -0.0000 -1.0000 -0.0000
vn -0.9973 -0.0732 -0.0000
vn -0.0000 -0.0000 1.0000
vn -0.0000 1.0000 -0.0000
vn -0.0000 -0.0000 -1.0000
vn 0.9973 -0.0732 -0.0000
vn 0.9973 0.0732 -0.0000
vn -0.9973 0.0732 -0.0000
vn -0.4720 -0.0000 -0.8816
vn -0.9404 -0.0000 -0.3400
vn -0.4720 -0.0000 0.8816
vn -0.9404 -0.0000 0.3400
vn 0.4720 -0.0000 -0.8816
vn 0.9404 -0.0000 -0.3400
vn 0.4720 -0.0000 0.8816
vn 0.9404 -0.0000 0.3400
vn -0.9888 -0.0000 -0.1492
vn 0.9888 -0.0000 -0.1492
vn 0.9888 -0.0000 0.1492
vn -0.9888 -0.0000 0.1492
vt 0.045794 0.755228
vt 0.045794 0.771510
vt 0.036394 0.771510
vt 0.029513 0.755228
vt 0.215409 0.924844
vt 0.215409 0.941125
vt 0.206009 0.941125
vt 0.199128 0.924844
vt 0.215409 0.278946
vt 0.199128 0.278946
vt 0.199128 0.269546
vt 0.215409 0.262664
vt 0.352462 0.924843
vt 0.368743 0.924844
vt 0.368743 0.934244
vt 0.352462 0.941125
vt 0.522077 0.755228
vt 0.538358 0.755228
vt 0.538358 0.764628
vt 0.522077 0.771510
vt 0.352462 0.278946
vt 0.352462 0.262664
vt 0.361862 0.262664
vt 0.368743 0.278946
vt 0.045794 0.618176
vt 0.029513 0.618176
vt 0.029513 0.608776
vt 0.045794 0.601895
vt 0.215409 0.415998
vt 0.215409 0.432279
vt 0.202568 0.435720
vt 0.199128 0.415998
vt 0.215409 0.448561
vt 0.199128 0.448561
vt 0.522077 0.618176
vt 0.522077 0.601895
vt 0.531477 0.601895
vt 0.538358 0.618176
vt 0.352462 0.448561
vt 0.352462 0.432279
vt 0.365302 0.428839
vt 0.368743 0.448561
vt 0.352462 0.415998
vt 0.368743 0.415998
vt 0.182846 0.755228
vt 0.199128 0.755228
vt 0.201421 0.771510
vt 0.190987 0.779650
vt 0.215409 0.755228
vt 0.215409 0.771510
vt 0.215409 0.787791
vt 0.385024 0.755228
vt 0.376883 0.779650
vt 0.368743 0.769216
vt 0.368743 0.755228
vt 0.352462 0.787791
vt 0.352462 0.771510
vt 0.352462 0.755228
vt 0.182846 0.618176
vt 0.190987 0.593754
vt 0.199128 0.604188
vt 0.199128 0.618176
vt 0.215409 0.585613
vt 0.215409 0.601895
vt 0.215409 0.618176
vt 0.385024 0.618176
vt 0.368743 0.618176
vt 0.366449 0.601895
vt 0.376883 0.593754
vt 0.352462 0.618176
vt 0.352462 0.601895
vt 0.352462 0.585613
vt 0.045794 0.686702
vt 0.029513 0.686702
vt 0.199128 0.347472
vt 0.215409 0.347472
vt 0.283935 0.924843
vt 0.283935 0.941125
vt 0.283935 0.262664
vt 0.283935 0.278946
vt 0.522077 0.686702
vt 0.538358 0.686702
vt 0.368743 0.347472
vt 0.352462 0.347472
vt 0.283935 0.448561
vt 0.283935 0.432279
vt 0.283935 0.415998
vt 0.283935 0.618176
vt 0.283935 0.601895
vt 0.283935 0.585613
vt 0.182846 0.686702
vt 0.199128 0.686702
vt 0.215409 0.686702
vt 0.385024 0.686702
vt 0.368743 0.686702
vt 0.352462 0.686702
vt 0.283935 0.787791
vt 0.283935 0.771510
vt 0.283935 0.755228
vt 0.283935 0.347472
vt 0.283935 0.686702
vt 0.418842 0.250000
vt 0.418842 0.354921
vt 0.406088 0.354921
vt 0.406088 0.250000
vt 0.514421 0.148492
vt 0.511009 0.040159
vt 0.523763 0.040159
vt 0.523763 0.145079
vt 0.708097 0.354921
vt 0.708097 0.250000
vt 0.720850 0.250000
vt 0.720850 0.354921
vt 0.615930 0.040159
vt 0.612517 0.148492
vt 0.603176 0.145079
vt 0.603176 0.040159
vt 0.505094 0.361759
vt 0.505094 0.243161
vt 0.514150 0.246859
vt 0.514150 0.358061
vt 0.523763 0.250000
vt 0.523763 0.354921
vt 0.621844 0.243161
vt 0.621844 0.361759
vt 0.612789 0.358061
vt 0.612789 0.246859
vt 0.603176 0.354921
vt 0.603176 0.250000
vt 0.563469 0.040159
vt 0.563469 0.145079
vt 0.563469 0.354921
vt 0.615930 0.447087
vt 0.612194 0.456106
vt 0.603176 0.459841
vt 0.563469 0.459841
vt 0.523763 0.459841
vt 0.514744 0.456106
vt 0.511009 0.447087
vt 0.511009 0.157833
vt 0.615930 0.157833
vt 0.563469 0.250000
vt 0.616742 0.616683
vt 0.616742 0.739617
vt 0.601799 0.739617
vt 0.601799 0.616683
vt 0.728730 0.497748
vt 0.724732 0.370817
vt 0.739675 0.370817
vt 0.739675 0.493750
vt 0.955656 0.739617
vt 0.955656 0.616683
vt 0.970599 0.616683
vt 0.970599 0.739617
vt 0.847665 0.370817
vt 0.843667 0.497748
vt 0.832722 0.493750
vt 0.832722 0.370817
vt 0.717802 0.747629
vt 0.717802 0.608670
vt 0.728412 0.613003
vt 0.728412 0.743296
vt 0.739675 0.616683
vt 0.739675 0.739617
vt 0.854596 0.608670
vt 0.854596 0.747629
vt 0.843986 0.743296
vt 0.843985 0.613003
vt 0.832722 0.739617
vt 0.832722 0.616683
vt 0.786199 0.370817
vt 0.786199 0.493750
vt 0.786199 0.739617
vt 0.847665 0.847607
vt 0.843289 0.858173
vt 0.832722 0.862550
vt 0.786199 0.862550
vt 0.739675 0.862550
vt 0.729109 0.858173
vt 0.724732 0.847607
vt 0.724732 0.508693
vt 0.847666 0.508693
vt 0.786199 0.616683
s 1
usemtl Cube.047
f 1/1/1 4/2/2 5/3/3 7/4/3
f 2/5/4 6/6/5 5/7/6 4/8/7
f 3/9/8 7/10/9 5/11/9 6/12/10
f 8/13/11 11/14/12 12/15/13 14/16/14
f 9/17/15 13/18/16 12/19/16 11/20/17
f 10/21/18 14/22/19 12/23/20 13/24/20
f 15/25/21 18/26/22 19/27/22 21/28/23
f 16/29/24 20/30/25 19/31/26 18/32/26
f 17/33/27 21/34/28 19/31/29 20/30/30
f 22/35/31 25/36/32 26/37/33 28/38/33
f 23/39/34 27/40/35 26/41/36 25/42/37
f 24/43/38 28/44/39 26/41/39 27/40/40
f 29/45/41 32/46/42 33/47/42 35/48/43
f 30/49/44 34/50/45 33/47/46 32/46/46
f 31/51/47 35/48/48 33/47/49 34/50/50
f 36/52/51 39/53/52 40/54/53 42/55/53
f 37/56/54 41/57/55 40/54/56 39/53/57
f 38/58/58 42/55/59 40/54/59 41/57/60
f 43/59/61 46/60/62 47/61/63 49/62/63
f 44/63/64 48/64/65 47/61/66 46/60/67
f 45/65/68 49/62/69 47/61/69 48/64/70
f 50/66/71 53/67/72 54/68/72 56/69/73
f 51/70/74 55/71/75 54/68/76 53/67/76
f 52/72/77 56/69/78 54/68/79 55/71/80
f 57/73/81 1/1/82 7/4/83 58/74/84
f 58/75/85 7/10/86 3/9/87 59/76/88
f 69/77/89 8/13/11 14/16/14 70/78/90
f 70/79/91 14/22/19 10/21/18 71/80/91
f 60/81/92 22/35/93 28/38/94 61/82/95
f 61/83/96 28/44/97 24/43/98 62/84/99
f 72/85/100 17/33/27 20/30/30 73/86/101
f 73/86/102 20/30/25 16/29/24 74/87/102
f 43/59/61 15/25/21 21/28/23 46/60/62
f 46/60/67 21/34/28 17/33/27 44/63/64
f 22/35/31 50/66/71 56/69/73 25/36/32
f 25/42/37 56/69/78 52/72/77 23/39/34
f 75/88/103 45/65/68 48/64/70 76/89/103
f 76/89/104 48/64/65 44/63/64 77/90/105
f 63/91/106 43/59/107 49/62/108 64/92/109
f 64/92/110 49/62/111 45/65/112 65/93/113
f 66/94/114 36/52/115 42/55/116 67/95/117
f 67/95/118 42/55/119 38/58/120 68/96/121
f 78/97/122 31/51/47 34/50/50 79/98/123
f 79/98/124 34/50/45 30/49/44 80/99/124
f 1/1/1 29/45/41 35/48/43 4/2/2
f 4/8/7 35/48/48 31/51/47 2/5/4
f 36/52/51 9/17/15 11/20/17 39/53/52
f 39/53/57 11/14/12 8/13/11 37/56/54
f 57/73/81 63/91/106 29/45/125 1/1/82
f 82/100/126 62/84/99 24/43/98 74/87/127
f 78/97/122 37/56/54 8/13/11 69/77/89
f 66/94/114 60/81/92 9/17/128 36/52/115
f 72/85/100 23/39/34 52/72/77 77/90/105
f 81/101/129 68/96/121 38/58/120 80/99/130
f 75/88/131 51/70/132 68/96/121 81/101/129
f 50/66/133 22/35/93 60/81/92 66/94/114
f 71/80/134 10/21/135 62/84/99 82/100/126
f 15/25/136 43/59/107 63/91/106 57/73/81
f 53/67/137 67/95/118 68/96/121 51/70/132
f 50/66/133 66/94/114 67/95/117 53/67/138
f 32/46/139 64/92/110 65/93/113 30/49/140
f 29/45/125 63/91/106 64/92/109 32/46/141
f 13/24/142 61/83/96 62/84/99 10/21/135
f 9/17/128 60/81/92 61/82/95 13/18/143
f 18/32/144 58/75/85 59/76/88 16/29/145
f 15/25/136 57/73/81 58/74/84 18/26/146
f 3/9/87 71/80/134 82/100/126 59/76/88
f 45/65/112 75/88/131 81/101/129 65/93/113
f 65/93/113 81/101/129 80/99/130 30/49/140
f 17/33/27 72/85/100 77/90/105 44/63/64
f 31/51/47 78/97/122 69/77/89 2/5/4
f 59/76/88 82/100/126 74/87/127 16/29/145
f 41/57/60 79/98/124 80/99/124 38/58/58
f 37/56/54 78/97/122 79/98/123 41/57/55
f 55/71/80 76/89/104 77/90/105 52/72/77
f 51/70/74 75/88/103 76/89/103 55/71/75
f 27/40/40 73/86/102 74/87/102 24/43/38
f 23/39/34 72/85/100 73/86/101 27/40/35
f 6/12/10 70/79/91 71/80/91 3/9/8
f 2/5/4 69/77/89 70/78/90 6/6/5
f 89/102/147 84/103/147 85/104/147 91/105/147
f 91/106/148 85/107/148 83/108/148 90/109/148
f 86/110/149 93/111/149 94/112/149 88/113/149
f 88/114/150 94/115/150 92/116/150 87/117/150
f 95/118/151 102/119/151 103/120/151 97/121/151
f 97/121/152 103/120/152 101/122/152 96/123/152
f 104/124/153 99/125/153 100/126/153 106/127/153
f 106/127/154 100/126/154 98/128/154 105/129/154
f 89/102/155 102/119/155 95/118/155 84/103/155
f 109/130/156 87/117/156 92/116/156 110/131/156
f 95/118/157 97/121/157 96/123/157 107/132/157 98/128/157 100/126/157 99/125/157 86/133/157 88/134/157 87/135/157 109/136/157 83/137/157 85/138/157 84/139/157
f 104/124/158 93/111/158 86/110/158 99/125/158
f 89/140/159 91/106/159 90/109/159 110/131/159 92/116/159 94/115/159 93/141/159 104/124/159 106/127/159 105/129/159 108/142/159 101/122/159 103/120/159 102/119/159
f 108/142/160 105/129/160 98/128/160 107/132/160
f 101/122/161 108/142/161 107/132/161 96/123/161
f 83/108/162 109/130/162 110/131/162 90/109/162
f 117/143/163 112/144/163 113/145/163 119/146/163
f 119/147/164 113/148/164 111/149/164 118/150/164
f 114/151/165 121/152/165 122/153/165 116/154/165
f 116/155/166 122/156/166 120/157/166 115/158/166
f 123/159/167 130/160/167 131/161/167 125/162/167
f 125/162/168 131/161/168 129/163/168 124/164/168
f 132/165/169 127/166/169 128/167/169 134/168/169
f 134/168/170 128/167/170 126/169/170 133/170/170
f 117/143/159 130/160/159 123/159/159 112/144/159
f 137/171/171 115/158/171 120/157/171 138/172/171
f 123/159/155 125/162/155 124/164/155 135/173/155 126/169/155 128/167/155 127/166/155 114/174/155 116/175/155 115/176/155 137/177/155 111/178/155 113/179/155 112/180/155
f 132/165/157 121/152/157 114/151/157 127/166/157
f 117/181/158 119/147/158 118/150/158 138/172/158 120/157/158 122/156/158 121/182/158 132/165/158 134/168/158 133/170/158 136/183/158 129/163/158 131/161/158 130/160/158
f 136/183/172 133/170/172 126/169/172 135/173/172
f 129/163/173 136/183/173 135/173/173 124/164/173
f 111/149/174 137/171/174 138/172/174 118/150/174
